<svg width="400" height="382" viewBox="0 0 400 382" fill="none" xmlns="http://www.w3.org/2000/svg">
<path d="M4.60828 147.277L200 210.33M200 210.33V5.06274M200 210.33L395.392 147.277M200 210.33L321.198 376.937M200 210.33L78.8018 376.937" stroke="#CFD8DC"/>
<path d="M311.982 365.431L318.433 172.13L199.539 55.229L32.7189 156.482L121.659 317.566L311.982 365.431Z" stroke="#90A4AE" stroke-width="2"/>
<path opacity="0.24" d="M311.982 365.431L318.433 172.13L199.539 55.229L32.7189 156.482L121.659 317.566L311.982 365.431Z" fill="#90A4AE"/>
<rect x="195.44" y="50.6831" width="9" height="9" rx="4.5" fill="#90A4AE" stroke="white"/>
<rect x="28.6198" y="151.936" width="9" height="9" rx="4.5" fill="#90A4AE" stroke="white"/>
<rect x="117.099" y="313.021" width="9" height="9" rx="4.5" fill="#90A4AE" stroke="white"/>
<rect x="307.882" y="360.885" width="9" height="9" rx="4.5" fill="#90A4AE" stroke="white"/>
<rect x="313.412" y="167.584" width="9" height="9" rx="4.5" fill="#90A4AE" stroke="white"/>
<path opacity="0.24" d="M258.986 191L200 135.311L81.106 172.13L93.0876 357.147L244.24 271.542L258.986 191Z" fill="#0239FE"/>
<path d="M258.986 191L200 135.311L81.106 172.13L93.0876 357.147L244.24 271.542L258.986 191Z" stroke="#0239FE" stroke-width="2"/>
<rect x="195.44" y="130.765" width="9" height="9" rx="4.5" fill="#0239FE" stroke="white"/>
<rect x="76.0461" y="167.084" width="10" height="10" rx="5" fill="#263238" stroke="white" stroke-width="2"/>
<rect x="88.5276" y="352.601" width="9" height="9" rx="4.5" fill="#0239FE" stroke="white"/>
<rect x="239.68" y="266.997" width="9" height="9" rx="4.5" fill="#0239FE" stroke="white"/>
<rect x="254.426" y="186.915" width="9" height="9" rx="4.5" fill="#0239FE" stroke="white"/>
<rect x="81" y="150" width="8" height="8" rx="1" transform="rotate(45 81 150)" fill="#0239FE"/>
<rect x="37" y="127" width="87" height="29" rx="3" fill="#0239FE"/>
<path d="M50.266 146.438L49.566 144.113H46.304L45.604 146.438H43.448L46.668 136.665H49.3L52.478 146.438H50.266ZM47.956 138.597H47.886L46.808 142.307H49.048L47.956 138.597ZM58.158 145.205H58.088C58.0226 145.392 57.934 145.569 57.822 145.737C57.7193 145.905 57.584 146.055 57.416 146.185C57.248 146.316 57.0473 146.419 56.814 146.494C56.59 146.568 56.3286 146.606 56.03 146.606C55.274 146.606 54.7 146.358 54.308 145.863C53.9253 145.359 53.734 144.641 53.734 143.707V139.087H55.806V143.525C55.806 143.973 55.8853 144.319 56.044 144.561C56.2026 144.804 56.4733 144.925 56.856 144.925C57.0146 144.925 57.1733 144.902 57.332 144.855C57.4906 144.809 57.6306 144.743 57.752 144.659C57.8733 144.566 57.9713 144.454 58.046 144.323C58.1206 144.193 58.158 144.039 58.158 143.861V139.087H60.23V146.438H58.158V145.205ZM64.8338 146.438C64.1151 146.438 63.5691 146.255 63.1958 145.891C62.8318 145.527 62.6498 144.995 62.6498 144.295V140.697H61.6138V139.087H62.1318C62.4118 139.087 62.6031 139.022 62.7058 138.891C62.8085 138.751 62.8598 138.555 62.8598 138.303V137.099H64.7218V139.087H66.1778V140.697H64.7218V144.827H66.0658V146.438H64.8338ZM70.6445 146.606C70.1032 146.606 69.6178 146.517 69.1885 146.339C68.7685 146.162 68.4092 145.905 68.1105 145.569C67.8212 145.233 67.5972 144.827 67.4385 144.351C67.2798 143.875 67.2005 143.343 67.2005 142.755C67.2005 142.167 67.2798 141.635 67.4385 141.159C67.5972 140.683 67.8212 140.282 68.1105 139.955C68.4092 139.619 68.7685 139.363 69.1885 139.185C69.6178 139.008 70.1032 138.919 70.6445 138.919C71.1858 138.919 71.6665 139.008 72.0865 139.185C72.5158 139.363 72.8752 139.619 73.1645 139.955C73.4632 140.282 73.6918 140.683 73.8505 141.159C74.0092 141.635 74.0885 142.167 74.0885 142.755C74.0885 143.343 74.0092 143.875 73.8505 144.351C73.6918 144.827 73.4632 145.233 73.1645 145.569C72.8752 145.905 72.5158 146.162 72.0865 146.339C71.6665 146.517 71.1858 146.606 70.6445 146.606ZM70.6445 144.967C71.0552 144.967 71.3725 144.841 71.5965 144.59C71.8205 144.337 71.9325 143.978 71.9325 143.511V142.013C71.9325 141.547 71.8205 141.187 71.5965 140.935C71.3725 140.683 71.0552 140.557 70.6445 140.557C70.2338 140.557 69.9165 140.683 69.6925 140.935C69.4685 141.187 69.3565 141.547 69.3565 142.013V143.511C69.3565 143.978 69.4685 144.337 69.6925 144.59C69.9165 144.841 70.2338 144.967 70.6445 144.967ZM75.6648 146.438V139.087H77.7368V140.683H77.8068C77.8442 140.478 77.9095 140.282 78.0028 140.095C78.0962 139.899 78.2175 139.727 78.3668 139.577C78.5255 139.428 78.7122 139.311 78.9268 139.227C79.1415 139.134 79.3935 139.087 79.6828 139.087H80.0468V141.019H79.5288C78.9222 141.019 78.4695 141.099 78.1708 141.257C77.8815 141.416 77.7368 141.71 77.7368 142.139V146.438H75.6648ZM82.461 138.303C82.041 138.303 81.733 138.21 81.537 138.023C81.3503 137.827 81.257 137.58 81.257 137.281V136.973C81.257 136.675 81.3503 136.432 81.537 136.245C81.733 136.049 82.041 135.951 82.461 135.951C82.881 135.951 83.1843 136.049 83.371 136.245C83.567 136.432 83.665 136.675 83.665 136.973V137.281C83.665 137.58 83.567 137.827 83.371 138.023C83.1843 138.21 82.881 138.303 82.461 138.303ZM81.425 139.087H83.497V146.438H81.425V139.087ZM90.0388 145.205H89.9688C89.9128 145.401 89.8242 145.588 89.7028 145.765C89.5815 145.933 89.4322 146.083 89.2548 146.213C89.0868 146.335 88.8908 146.428 88.6668 146.494C88.4522 146.568 88.2282 146.606 87.9948 146.606C87.0615 146.606 86.3568 146.279 85.8808 145.625C85.4048 144.963 85.1668 144.006 85.1668 142.755C85.1668 141.505 85.4048 140.553 85.8808 139.899C86.3568 139.246 87.0615 138.919 87.9948 138.919C88.4708 138.919 88.8908 139.05 89.2548 139.311C89.6282 139.573 89.8662 139.909 89.9688 140.319H90.0388V136.077H92.1108V146.438H90.0388V145.205ZM88.6808 144.925C89.0728 144.925 89.3948 144.832 89.6468 144.645C89.9082 144.449 90.0388 144.183 90.0388 143.847V141.677C90.0388 141.341 89.9082 141.08 89.6468 140.893C89.3948 140.697 89.0728 140.599 88.6808 140.599C88.2888 140.599 87.9622 140.739 87.7008 141.019C87.4488 141.29 87.3228 141.659 87.3228 142.125V143.399C87.3228 143.866 87.4488 144.239 87.7008 144.519C87.9622 144.79 88.2888 144.925 88.6808 144.925ZM99.5804 146.438C99.2071 146.438 98.8944 146.321 98.6424 146.087C98.3998 145.854 98.2458 145.541 98.1804 145.149H98.0964C97.9844 145.625 97.7371 145.989 97.3544 146.241C96.9718 146.484 96.5004 146.606 95.9404 146.606C95.2031 146.606 94.6384 146.409 94.2464 146.017C93.8544 145.625 93.6584 145.107 93.6584 144.463C93.6584 143.689 93.9384 143.115 94.4984 142.742C95.0678 142.359 95.8378 142.167 96.8084 142.167H97.9704V141.705C97.9704 141.351 97.8771 141.071 97.6904 140.865C97.5038 140.651 97.1911 140.543 96.7524 140.543C96.3418 140.543 96.0151 140.632 95.7724 140.809C95.5298 140.987 95.3291 141.187 95.1704 141.411L93.9384 140.319C94.2371 139.881 94.6104 139.54 95.0584 139.297C95.5158 139.045 96.1318 138.919 96.9064 138.919C97.9518 138.919 98.7358 139.148 99.2584 139.605C99.7811 140.063 100.042 140.73 100.042 141.607V144.827H100.728V146.438H99.5804ZM96.7104 145.163C97.0558 145.163 97.3498 145.089 97.5924 144.939C97.8444 144.79 97.9704 144.547 97.9704 144.211V143.343H96.9624C96.1504 143.343 95.7444 143.619 95.7444 144.169V144.38C95.7444 144.65 95.8284 144.851 95.9964 144.981C96.1644 145.103 96.4024 145.163 96.7104 145.163ZM106.727 145.205H106.657C106.601 145.401 106.512 145.588 106.391 145.765C106.27 145.933 106.12 146.083 105.943 146.213C105.775 146.335 105.579 146.428 105.355 146.494C105.14 146.568 104.916 146.606 104.683 146.606C103.75 146.606 103.045 146.279 102.569 145.625C102.093 144.963 101.855 144.006 101.855 142.755C101.855 141.505 102.093 140.553 102.569 139.899C103.045 139.246 103.75 138.919 104.683 138.919C105.159 138.919 105.579 139.05 105.943 139.311C106.316 139.573 106.554 139.909 106.657 140.319H106.727V136.077H108.799V146.438H106.727V145.205ZM105.369 144.925C105.761 144.925 106.083 144.832 106.335 144.645C106.596 144.449 106.727 144.183 106.727 143.847V141.677C106.727 141.341 106.596 141.08 106.335 140.893C106.083 140.697 105.761 140.599 105.369 140.599C104.977 140.599 104.65 140.739 104.389 141.019C104.137 141.29 104.011 141.659 104.011 142.125V143.399C104.011 143.866 104.137 144.239 104.389 144.519C104.65 144.79 104.977 144.925 105.369 144.925ZM113.903 146.606C113.343 146.606 112.843 146.517 112.405 146.339C111.966 146.153 111.593 145.896 111.285 145.569C110.986 145.233 110.757 144.827 110.599 144.351C110.449 143.875 110.375 143.343 110.375 142.755C110.375 142.177 110.449 141.654 110.599 141.187C110.748 140.711 110.967 140.305 111.257 139.969C111.555 139.633 111.919 139.377 112.349 139.199C112.778 139.013 113.268 138.919 113.819 138.919C114.425 138.919 114.943 139.022 115.373 139.227C115.811 139.433 116.166 139.708 116.437 140.053C116.717 140.399 116.917 140.8 117.039 141.257C117.169 141.705 117.235 142.177 117.235 142.671V143.287H112.517V143.399C112.517 143.885 112.647 144.272 112.909 144.561C113.17 144.841 113.581 144.981 114.141 144.981C114.57 144.981 114.92 144.897 115.191 144.729C115.461 144.552 115.713 144.342 115.947 144.099L116.983 145.387C116.656 145.77 116.227 146.069 115.695 146.283C115.172 146.498 114.575 146.606 113.903 146.606ZM113.861 140.445C113.441 140.445 113.109 140.585 112.867 140.865C112.633 141.136 112.517 141.5 112.517 141.957V142.069H115.093V141.943C115.093 141.495 114.99 141.136 114.785 140.865C114.589 140.585 114.281 140.445 113.861 140.445Z" fill="white"/>
</svg>
