<svg width="400" height="400" viewBox="0 0 400 400" fill="none" xmlns="http://www.w3.org/2000/svg">
<path d="M37.8364 163.602L200.5 216.091M200.5 216.091V45.2144M200.5 216.091L363.164 163.602M200.5 216.091L301.397 354.785M200.5 216.091L99.6026 354.785" stroke="#CFD8DC"/>
<path d="M293.725 345.207L299.096 184.292L200.116 86.9758L61.2385 171.265L135.281 305.361L293.725 345.207Z" stroke="#90A4AE" stroke-width="2"/>
<path opacity="0.24" d="M293.725 345.207L299.096 184.292L200.116 86.9758L61.2385 171.265L135.281 305.361L293.725 345.207Z" fill="#90A4AE"/>
<rect x="195.793" y="82.2808" width="9" height="9" rx="4.5" fill="#90A4AE" stroke="white"/>
<rect x="56.9147" y="166.57" width="9" height="9" rx="4.5" fill="#90A4AE" stroke="white"/>
<rect x="130.574" y="300.666" width="9" height="9" rx="4.5" fill="#90A4AE" stroke="white"/>
<rect x="289.401" y="340.512" width="9" height="9" rx="4.5" fill="#90A4AE" stroke="white"/>
<rect x="294.005" y="179.596" width="9" height="9" rx="4.5" fill="#90A4AE" stroke="white"/>
<path opacity="0.24" d="M249.606 200L200.5 153.641L101.521 184.291L111.495 338.311L237.33 267.048L249.606 200Z" fill="#0239FE"/>
<path d="M249.606 200L200.5 153.641L101.521 184.291L111.495 338.311L237.33 267.048L249.606 200Z" stroke="#0239FE" stroke-width="2"/>
<rect x="195.793" y="148.946" width="9" height="9" rx="4.5" fill="#0239FE" stroke="white"/>
<rect x="96.3134" y="179.096" width="10" height="10" rx="5" fill="#263238" stroke="white" stroke-width="2"/>
<rect x="106.788" y="333.616" width="9" height="9" rx="4.5" fill="#0239FE" stroke="white"/>
<rect x="232.622" y="262.353" width="9" height="9" rx="4.5" fill="#0239FE" stroke="white"/>
<rect x="244.899" y="195.688" width="9" height="9" rx="4.5" fill="#0239FE" stroke="white"/>
<rect x="101" y="165" width="8" height="8" rx="1" transform="rotate(45 101 165)" fill="#0239FE"/>
<rect x="66" y="147" width="69" height="24" rx="3" fill="#0239FE"/>
<path d="M72.2529 162.5H73.9556L74.541 160.62H77.2803L77.8657 162.5H79.5684L76.8667 154.75H74.96L72.2529 162.5ZM75.8945 156.253H75.9268L76.9043 159.406H74.917L75.8945 156.253ZM82.0961 162.618C82.9662 162.618 83.557 162.21 83.8524 161.549H83.8847V162.5H85.453V156.742H83.8847V160.051C83.8847 160.803 83.4389 161.318 82.7353 161.318C82.0316 161.318 81.6771 160.883 81.6771 160.131V156.742H80.1088V160.459C80.1088 161.807 80.8285 162.618 82.0961 162.618ZM88.8616 162.618C89.1893 162.618 89.4417 162.586 89.6189 162.559V161.41C89.5223 161.42 89.4202 161.437 89.2806 161.437C88.8079 161.437 88.5662 161.254 88.5662 160.717V157.924H89.6189V156.742H88.5662V155.335H86.9817V156.742H86.1814V157.924H86.9817V160.889C86.9817 162.124 87.5833 162.618 88.8616 162.618ZM93.1403 162.618C94.8806 162.618 95.9924 161.501 95.9924 159.621V159.61C95.9924 157.747 94.8591 156.624 93.135 156.624C91.4162 156.624 90.2883 157.757 90.2883 159.61V159.621C90.2883 161.496 91.3894 162.618 93.1403 162.618ZM93.1457 161.388C92.3723 161.388 91.8835 160.749 91.8835 159.621V159.61C91.8835 158.499 92.3776 157.854 93.135 157.854C93.8977 157.854 94.3972 158.499 94.3972 159.61V159.621C94.3972 160.744 93.9084 161.388 93.1457 161.388ZM96.9034 162.5H98.4718V159.277C98.4718 158.439 98.9229 157.978 99.6964 157.978C99.922 157.978 100.137 158.01 100.266 158.063V156.683C100.148 156.651 99.9864 156.624 99.8146 156.624C99.1432 156.624 98.6759 157.038 98.504 157.747H98.4718V156.742H96.9034V162.5ZM101.827 156.001C102.299 156.001 102.665 155.63 102.665 155.185C102.665 154.739 102.299 154.368 101.827 154.368C101.354 154.368 100.989 154.739 100.989 155.185C100.989 155.63 101.354 156.001 101.827 156.001ZM101.042 162.5H102.611V156.742H101.042V162.5ZM105.896 162.618C106.728 162.618 107.362 162.199 107.668 161.517H107.701V162.5H109.269V154.75H107.701V157.741H107.668C107.357 157.043 106.712 156.624 105.896 156.624C104.446 156.624 103.554 157.741 103.554 159.616V159.621C103.554 161.49 104.446 162.618 105.896 162.618ZM106.422 161.318C105.638 161.318 105.149 160.668 105.149 159.621V159.616C105.149 158.563 105.643 157.924 106.422 157.924C107.18 157.924 107.706 158.579 107.706 159.616V159.621C107.706 160.663 107.185 161.318 106.422 161.318ZM112.13 162.591C112.887 162.591 113.499 162.231 113.827 161.641H113.859V162.5H115.428V158.552C115.428 157.392 114.466 156.624 112.978 156.624C111.458 156.624 110.545 157.387 110.459 158.45L110.454 158.515H111.888L111.899 158.466C111.974 158.096 112.328 157.822 112.914 157.822C113.526 157.822 113.859 158.139 113.859 158.649V159.003L112.436 159.089C111.007 159.181 110.196 159.793 110.196 160.84V160.851C110.196 161.866 110.975 162.591 112.13 162.591ZM111.748 160.771V160.76C111.748 160.352 112.065 160.094 112.672 160.056L113.859 159.981V160.395C113.859 160.996 113.344 161.447 112.64 161.447C112.097 161.447 111.748 161.195 111.748 160.771ZM118.675 162.618C119.508 162.618 120.141 162.199 120.447 161.517H120.48V162.5H122.048V154.75H120.48V157.741H120.447C120.136 157.043 119.491 156.624 118.675 156.624C117.225 156.624 116.333 157.741 116.333 159.616V159.621C116.333 161.49 117.225 162.618 118.675 162.618ZM119.201 161.318C118.417 161.318 117.928 160.668 117.928 159.621V159.616C117.928 158.563 118.423 157.924 119.201 157.924C119.959 157.924 120.485 158.579 120.485 159.616V159.621C120.485 160.663 119.964 161.318 119.201 161.318ZM125.817 162.618C127.46 162.618 128.255 161.646 128.432 160.797L128.448 160.738H127.009L126.998 160.771C126.885 161.093 126.493 161.447 125.849 161.447C125.048 161.447 124.549 160.91 124.533 159.992H128.497V159.508C128.497 157.768 127.439 156.624 125.752 156.624C124.066 156.624 122.986 157.795 122.986 159.626V159.632C122.986 161.474 124.055 162.618 125.817 162.618ZM125.779 157.795C126.429 157.795 126.896 158.208 126.993 159.003H124.549C124.651 158.225 125.134 157.795 125.779 157.795Z" fill="white"/>
</svg>
