<svg width="60" height="57" viewBox="0 0 60 57" fill="none"
  xmlns="http://www.w3.org/2000/svg">
  <style>
  path {
    fill: hsl(200 7% 8.4%);
  }

  @media (prefers-color-scheme: dark) {
    path {
  	  fill: hsl(240 3% 93%);
    }
  }
  </style>
  <path fill-rule="evenodd" clip-rule="evenodd" d="M33.1295 46.2483L34.239 55.6119L35.7286 55.4354L35.698 55.1768L35.7329 55.2983L37.1745 54.8837L34.6047 45.9507L34.1555 42.1593L39.506 54.0332L40.8736 53.4169L33.5685 37.2056L33.3846 35.6538L45.7295 50.3818L46.8791 49.4182L40.3753 41.659L47.219 48.4672L48.2769 47.4038L32.9728 32.1789L32.9276 31.7972L34.1846 32.4895L50.3275 48.9777L51.3994 47.9283L38.7406 34.9989L52.2248 42.4256L52.9484 41.1117L35.1018 31.2823L34.1569 30.3172L41.7314 32.8059L56.5703 40.3261L57.2484 38.9881L51.1674 35.9064L55.9723 37.4851L56.4405 36.0601L42.3078 31.4165L40.8213 30.6631L58.9208 32.8351L59.0995 31.3457L44.108 29.5468L58.9208 29.9366L58.9602 28.4371L41.4426 27.9761L55.2977 26.3135L55.119 24.8242L44.2556 26.1278L58.1962 22.6904L57.8371 21.234L33.8745 27.1426L33.7799 27.0947L53.8484 19.0673L53.2914 17.6745L35.2999 24.8711L36.9738 22.8204L50.2253 12.5457L49.3062 11.3602L41.1939 17.6502L49.5007 7.47329L48.3387 6.52478L35.9197 21.7396L34.3821 22.9318L35.6664 20.0812L45.153 7.47329L43.9544 6.57143L38.4679 13.8631L42.9791 3.85021L41.6115 3.23404L34.3674 19.3128L33.8032 20.0626L36.4469 1.89228L34.9625 1.67631L31.924 22.5601L31.8454 22.6645L29.2517 0.775208L27.7621 0.951715L28.092 23.3114L21.9574 1.98627L20.5159 2.40096L25.1607 18.5472L18.2603 3.23395L16.8927 3.8502L24.2676 20.2164L12.8922 8.59778L12.7666 8.72071L11.5208 7.23435L10.3712 8.19792L17.9193 17.2031L9.25517 8.58376L8.19726 9.64716L17.382 18.7844L8.15071 14.1062L7.47264 15.4442L20.8276 22.2122L23.5484 24.919L4.73489 14.557L4.01123 15.8709L17.3432 23.2138L3.6158 18.7034L3.14757 20.1284L24.4489 27.1274L24.5888 27.2045L4.75288 24.8241L4.57416 26.3135L11.9651 27.2004L3.889 26.9878L3.84954 28.4873L20.8619 28.935L0.772339 31.3458L0.951057 32.8351L20.1143 30.5355L4.93967 34.2772L5.29878 35.7336L12.7161 33.9046L2.56783 37.9639L3.12492 39.3567L23.2461 31.3082L23.734 31.1879L6.49773 44.5522L7.41685 45.7376L24.3821 32.5835L11.3464 49.9081L12.545 50.81L13.7099 49.2618L14.7189 50.0853L27.629 34.2688L19.1483 53.0923L20.5159 53.7085L28.2861 36.4621L28.4348 46.5412L27.0374 56.1454L28.5218 56.3614L28.5761 55.9883L30.074 55.9662L29.9364 46.6387L31.0467 39.008L33.1295 46.2483ZM28.192 30.0886L28.2082 31.1871L16.7177 45.2645L28.1238 30.1055L28.192 30.0886ZM30.5404 24.3989L29.9663 25.1619L29.6169 24.9849L29.4756 15.4127L30.5404 24.3989ZM23.7941 21.8769L24.0993 22.1887L24.023 22.15L23.7941 21.8769ZM30.04 35.5087L29.7968 37.18L29.7577 34.5273L30.04 35.5087Z" />
</svg>
