<svg width="420" height="93" viewBox="0 0 420 93" fill="none" xmlns="http://www.w3.org/2000/svg">
<path d="M148.16 80.2C142.96 80.2 138.24 78.92 134 76.36C129.76 73.72 126.4 70.16 123.92 65.68C121.52 61.2 120.32 56.16 120.32 50.56C120.32 44.96 121.52 39.92 123.92 35.44C126.4 30.96 129.72 27.4 133.88 24.76C138.12 22.12 142.88 20.8 148.16 20.8C152.48 20.8 156.32 21.72 159.68 23.56C163.12 25.32 165.88 27.8 167.96 31C170.04 34.12 171.2 37.76 171.44 41.92V59.08C171.2 63.16 170.04 66.8 167.96 70C165.96 73.2 163.24 75.72 159.8 77.56C156.44 79.32 152.56 80.2 148.16 80.2ZM149.96 70C155.32 70 159.64 68.2 162.92 64.6C166.2 60.92 167.84 56.24 167.84 50.56C167.84 46.64 167.08 43.24 165.56 40.36C164.12 37.4 162.04 35.12 159.32 33.52C156.6 31.84 153.44 31 149.84 31C146.24 31 143.04 31.84 140.24 33.52C137.52 35.2 135.36 37.52 133.76 40.48C132.24 43.36 131.48 46.68 131.48 50.44C131.48 54.28 132.24 57.68 133.76 60.64C135.36 63.52 137.56 65.8 140.36 67.48C143.16 69.16 146.36 70 149.96 70ZM167.12 79V63.64L169.16 49.72L167.12 35.92V22H178.04V79H167.12ZM225.784 79V45.76C225.784 41.44 224.424 37.88 221.704 35.08C218.984 32.28 215.464 30.88 211.144 30.88C208.264 30.88 205.704 31.52 203.464 32.8C201.224 34.08 199.464 35.84 198.184 38.08C196.904 40.32 196.264 42.88 196.264 45.76L191.824 43.24C191.824 38.92 192.784 35.08 194.704 31.72C196.624 28.36 199.304 25.72 202.744 23.8C206.184 21.8 210.064 20.8 214.384 20.8C218.704 20.8 222.504 21.88 225.784 24.04C229.144 26.2 231.784 29.04 233.704 32.56C235.624 36 236.584 39.68 236.584 43.6V79H225.784ZM185.464 79V22H196.264V79H185.464ZM283.226 79V45.76C283.226 41.44 281.866 37.88 279.146 35.08C276.426 32.28 272.906 30.88 268.586 30.88C265.706 30.88 263.146 31.52 260.906 32.8C258.666 34.08 256.906 35.84 255.626 38.08C254.346 40.32 253.706 42.88 253.706 45.76L249.266 43.24C249.266 38.92 250.226 35.08 252.146 31.72C254.066 28.36 256.746 25.72 260.186 23.8C263.626 21.8 267.506 20.8 271.826 20.8C276.146 20.8 279.946 21.88 283.226 24.04C286.586 26.2 289.226 29.04 291.146 32.56C293.066 36 294.026 39.68 294.026 43.6V79H283.226ZM242.906 79V22H253.706V79H242.906ZM340.668 79V45.76C340.668 41.44 339.308 37.88 336.588 35.08C333.868 32.28 330.348 30.88 326.028 30.88C323.148 30.88 320.588 31.52 318.348 32.8C316.108 34.08 314.348 35.84 313.068 38.08C311.788 40.32 311.148 42.88 311.148 45.76L306.708 43.24C306.708 38.92 307.668 35.08 309.588 31.72C311.508 28.36 314.188 25.72 317.628 23.8C321.068 21.8 324.948 20.8 329.268 20.8C333.588 20.8 337.388 21.88 340.668 24.04C344.028 26.2 346.668 29.04 348.588 32.56C350.508 36 351.468 39.68 351.468 43.6V79H340.668ZM300.348 79V22H311.148V79H300.348ZM382.03 80.2C376.83 80.2 372.11 78.92 367.87 76.36C363.63 73.72 360.27 70.16 357.79 65.68C355.39 61.2 354.19 56.16 354.19 50.56C354.19 44.96 355.39 39.92 357.79 35.44C360.27 30.96 363.59 27.4 367.75 24.76C371.99 22.12 376.75 20.8 382.03 20.8C386.35 20.8 390.19 21.72 393.55 23.56C396.99 25.32 399.75 27.8 401.83 31C403.91 34.12 405.07 37.76 405.31 41.92V59.08C405.07 63.16 403.91 66.8 401.83 70C399.83 73.2 397.11 75.72 393.67 77.56C390.31 79.32 386.43 80.2 382.03 80.2ZM383.83 70C389.19 70 393.51 68.2 396.79 64.6C400.07 60.92 401.71 56.24 401.71 50.56C401.71 46.64 400.95 43.24 399.43 40.36C397.99 37.4 395.91 35.12 393.19 33.52C390.47 31.84 387.31 31 383.71 31C380.11 31 376.91 31.84 374.11 33.52C371.39 35.2 369.23 37.52 367.63 40.48C366.11 43.36 365.35 46.68 365.35 50.44C365.35 54.28 366.11 57.68 367.63 60.64C369.23 63.52 371.43 65.8 374.23 67.48C377.03 69.16 380.23 70 383.83 70ZM400.99 79V63.64L403.03 49.72L400.99 35.92V22H411.91V79H400.99Z" fill="black"/>
<path fill-rule="evenodd" clip-rule="evenodd" d="M54.0287 75.9242L55.8814 91.5588L58.3609 91.2648L58.304 90.7849L58.3759 91.0351L60.7754 90.3448L56.4843 75.4286L55.7311 69.0734L64.6763 88.9224L66.9527 87.8969L54.754 60.8281L54.4454 58.2239L75.068 82.8262L76.9818 81.2221L66.0664 68.2002L77.5555 79.6292L79.3163 77.8591L53.7596 52.4366L53.6832 51.7911L55.7904 52.9516L82.7457 80.4818L84.5297 78.7348L63.3742 57.1283L85.9135 69.5415L87.1183 67.3545L57.3172 50.9422L55.7281 49.3193L68.3921 53.4801L93.1699 66.0362L94.2985 63.8092L84.099 58.6405L92.1712 61.2927L92.9508 58.9208L69.3515 51.1673L66.8497 49.8994L97.0949 53.5286L97.392 51.0497L72.2759 48.036L97.0949 48.6891L97.1604 46.1933L67.8559 45.4222L91.0451 42.6397L90.7474 40.1608L72.5443 42.3451L95.8846 36.5903L95.2872 34.1662L55.2718 44.0323L55.1051 43.9479L88.6251 30.5408L87.6975 28.2228L54.8836 41.3475L55.3816 40.7352L82.5753 19.6519L81.0454 17.6789L62.3384 32.1824L80.6103 9.71856L78.6734 8.14318L57.2547 34.4757L58.2649 32.2338L74.1055 11.1827L72.1105 9.68155L62.9279 21.8842L70.4757 5.13334L68.1993 4.10778L56.1026 30.9548L55.1415 32.2321L59.5604 1.86309L57.0896 1.50362L52.0135 36.3889L51.8791 36.5675L47.5457 0L45.0663 0.293784L45.6176 37.657L35.3661 2.02329L32.9666 2.71351L40.7378 29.7255L29.1931 4.10759L26.9167 5.13329L39.2406 32.4804L20.2311 13.0658L20.0214 13.271L17.9407 10.7888L16.0271 12.3926L28.687 27.4952L14.1581 13.0424L12.3972 14.8123L27.7517 30.0866L12.3159 22.2645L11.1872 24.4915L33.4871 35.7919L38.0505 40.3314L6.61194 23.0171L5.40737 25.204L27.7063 37.4847L4.74464 29.9408L3.96525 32.3126L39.5341 43.9987L39.7859 44.1374L6.64484 40.1608L6.34734 42.6396L18.7729 44.1306L5.20306 43.7735L5.13738 46.2693L33.5986 47.0182L0 51.0498L0.297484 53.5287L32.36 49.6814L6.9595 55.9441L7.5573 58.3682L19.998 55.3008L3.00011 62.0995L3.92741 64.4178L37.5255 50.9792L38.3591 50.7737L9.56411 73.0986L11.094 75.0716L39.446 53.0903L17.6619 82.0397L19.6571 83.5408L20.7724 82.0585L21.3726 82.5465L45.8363 52.4705L45.8544 53.6996L30.6902 87.3551L32.9666 88.3806L45.9412 59.5847L46.1896 76.4135L43.8562 92.4495L46.327 92.809L46.4219 92.1568L46.4223 92.1873L48.9189 92.1505L48.6891 76.5758L50.5456 63.8173L54.0287 75.9242ZM49.7069 39.4542L48.7492 40.727L48.1556 40.4262L47.9186 24.3631L49.7069 39.4542ZM38.3694 35.1593L38.9674 35.77L38.8178 35.6943L38.3694 35.1593ZM48.87 57.9927L48.4568 60.8326L48.3902 56.3252L48.87 57.9927Z" fill="#0239FE"/>
</svg>
